<?xml version="1.0" encoding="UTF-8"?>
<svg width="962px" height="57px" viewBox="0 0 962 57" version="1.1" xmlns="http://www.w3.org/2000/svg" xmlns:xlink="http://www.w3.org/1999/xlink">
    <!-- Generator: Sketch 58 (84663) - https://sketch.com -->
    <title>clouds</title>
    <desc>Created with Sketch.</desc>
    <defs>
        <polygon id="path-1" points="2.27739655e-15 0 962 0 962 58 2.27739655e-15 58"></polygon>
    </defs>
    <g id="clouds" stroke="none" stroke-width="1" fill="none" fill-rule="evenodd">
        <g id="Group-3" opacity="0.5" transform="translate(0.000000, -1.000000)">
            <mask id="mask-2" fill="white">
                <use xlink:href="#path-1"></use>
            </mask>
            <g id="Clip-2"></g>
        </g>
        <path d="M644,16.499495 C644,25.6123473 635.493368,33 625.000497,33 C614.506632,33 606,25.6123473 606,16.499495 C606,7.38664259 614.506632,0 625.000497,0 C635.493368,0 644,7.38664259 644,16.499495" id="Fill-36" fill="#FFFFFF"></path>
        <path d="M619,16.4994962 C619,32.7928343 605.792052,46 589.5,46 C573.207948,46 560,32.7928343 560,16.4994962 C560,0.207165668 573.207948,-13 589.5,-13 C605.792052,-13 619,0.207165668 619,16.4994962" id="Fill-37" fill="#FFFFFF"></path>
        <path d="M563.180996,-33 C546.713049,-33 533.362997,-23.5818139 533.362997,-11.9649884 C533.362997,-7.09450904 535.714986,-2.6155409 539.653061,0.949901034 C523.725871,1.38325316 511,10.6231174 511,21.9649884 C511,33.5818139 524.351058,43 540.819004,43 C557.286951,43 570.637003,33.5818139 570.637003,21.9649884 C570.637003,17.094509 568.285014,12.6155409 564.346939,9.05009897 C580.274129,8.61674684 593,-0.623117356 593,-11.9649884 C593,-23.5818139 579.649947,-33 563.180996,-33" id="Fill-38" fill="#D2E5F9"></path>
        <path d="M464.310941,8 C447.913204,8 434.62088,19.2026723 434.62088,33.0215256 C434.62088,37.9481519 436.317198,42.5391662 439.235464,46.4121498 C438.218675,46.3235163 437.186873,46.2767099 436.142062,46.2767099 C419.744326,46.2767099 406.452002,57.4783863 406.452002,71.2982354 C406.452002,72.3558617 406.539069,73.3955621 406.690187,74.4193284 C397.868335,75.2240007 391,81.5159808 391,89.1643516 C391,97.3574696 398.881121,104 408.603673,104 C416.092489,104 422.472445,100.051329 425.016421,94.4963018 C428.45309,95.6684544 432.206005,96.319761 436.142062,96.319761 C452.538797,96.319761 465.832122,85.1170887 465.832122,71.2982354 C465.832122,66.3706132 464.134804,61.7805948 461.216537,57.9076112 C462.233327,57.9962447 463.266129,58.0430511 464.310941,58.0430511 C480.707676,58.0430511 494,46.8403788 494,33.0215256 C494,19.2026723 480.707676,8 464.310941,8" id="Fill-40" fill="#D2E5F9"></path>
        <path d="M829.280896,100.016267 C827.462412,100.016267 825.730904,100.17023 824.142355,100.444164 C824.148353,100.301199 824.172346,100.160232 824.172346,100.016267 C824.172346,92.3431053 815.816719,86.1225956 805.510645,86.1225956 C803.524209,86.1225956 801.613752,86.3575393 799.819261,86.7854368 C795.649445,82.243525 788.275539,78.8073482 779.39706,77.4426752 C784.030744,73.7175677 786.848944,68.8217406 786.848944,63.4550264 C786.848944,52.5096487 775.145267,43.5108047 760.159523,42.4510586 C760.171519,42.0871458 760.190514,41.7242327 760.190514,41.3573206 C760.190514,21.7850098 742.286598,5.91781136 720.200869,5.91781136 C711.071461,5.91781136 702.660849,8.63516033 695.929761,13.1990669 C692.750663,11.3295148 688.743801,10.2037845 684.378041,10.2037845 C682.392605,10.2037845 680.482147,10.439728 678.686657,10.8676255 C675.68151,7.59340991 671.002839,4.89605615 665.303457,3.13147892 C667.292892,0.296158212 668.418573,-2.90007602 668.418573,-6.28526499 C668.418573,-11.0091332 666.237192,-15.3710882 662.554238,-18.8872458 C662.839157,-20.3788884 662.994113,-21.9155202 662.994113,-23.4891432 C662.994113,-36.946919 652.084211,-47.857305 638.627032,-47.857305 C638.419091,-47.857305 638.213149,-47.8463077 638.005208,-47.8413089 C632.074892,-60.8321965 617.71497,-70 600.930736,-70 C600.618824,-70 600.310912,-69.9850036 600,-69.979005 C599.689088,-69.9850036 599.381176,-70 599.069264,-70 C582.28503,-70 567.925108,-60.8321965 561.993792,-47.8413089 C561.786851,-47.8463077 561.580909,-47.857305 561.372968,-47.857305 C547.915789,-47.857305 537.005887,-36.946919 537.005887,-23.4891432 C537.005887,-10.0313675 547.915789,0.879018568 561.372968,0.879018568 C563.219444,0.879018568 565.015934,0.666069587 566.745443,0.277162763 C566.112622,1.11396228 565.52179,1.97775533 564.969947,2.86354311 C560.552201,1.59684659 555.564617,0.879018568 550.279118,0.879018568 C537.683695,0.879018568 526.761796,4.93304729 521.313343,10.8676255 C519.518853,10.439728 517.607395,10.2037845 515.621959,10.2037845 C511.256199,10.2037845 507.249337,11.3295148 504.070239,13.1990669 C497.339151,8.63516033 488.928539,5.91781136 479.799131,5.91781136 C457.713402,5.91781136 439.810486,21.7850098 439.810486,41.3573206 C439.810486,41.7242327 439.828481,42.0871458 439.841477,42.4510586 C424.854733,43.5108047 413.151056,52.5096487 413.151056,63.4550264 C413.151056,68.8217406 415.969256,73.7175677 420.60394,77.4426752 C411.724461,78.8073482 404.349555,82.243525 400.180739,86.7854368 C398.385249,86.3575393 396.475791,86.1225956 394.490355,86.1225956 C384.183281,86.1225956 375.828654,92.3431053 375.828654,100.016267 C375.828654,100.160232 375.851647,100.301199 375.857645,100.444164 C374.269096,100.17023 372.537588,100.016267 370.720104,100.016267 C363.143256,100.016267 357,102.636639 357,105.867865 C357,109.099091 363.143256,111.720463 370.720104,111.720463 C374.873925,111.720463 378.58787,110.929652 381.104156,109.68595 C384.495193,112.287327 389.234847,113.909938 394.490355,113.909938 C399.849833,113.909938 404.667465,112.218344 408.071498,109.523989 C413.759883,112.258334 421.111795,113.909938 429.146514,113.909938 C435.451724,113.909938 441.335053,112.892182 446.326636,111.134603 C451.693112,117.760016 459.890784,122 469.080175,122 C477.788702,122 485.603483,118.192912 490.964961,112.157358 C494.755884,114.587776 499.259605,116.003437 504.096232,116.003437 C508.933858,116.003437 513.438579,114.587776 517.229503,112.156358 C518.076262,112.203347 518.927021,112.235339 519.787776,112.235339 C525.3392,112.235339 530.626699,111.23158 535.431334,109.419014 C541.148711,112.216344 548.5836,113.909938 556.71929,113.909938 C563.929242,113.909938 570.589351,112.580257 575.991817,110.330796 C577.386421,110.835675 579.014959,111.224582 580.803451,111.460525 C583.810597,113.003155 587.449564,113.909938 591.376449,113.909938 C594.489565,113.909938 597.418733,113.335076 600,112.330317 C602.580267,113.335076 605.510435,113.909938 608.623551,113.909938 C612.551436,113.909938 616.190403,113.003155 619.196549,111.460525 C620.985041,111.224582 622.613579,110.835675 624.008183,110.330796 C629.410649,112.580257 636.070758,113.909938 643.28071,113.909938 C651.4164,113.909938 658.851289,112.216344 664.568666,109.419014 C669.373301,111.23158 674.6608,112.235339 680.212224,112.235339 C681.072979,112.235339 681.923738,112.203347 682.770497,112.156358 C686.561421,114.587776 691.066142,116.003437 695.903768,116.003437 C700.740395,116.003437 705.244116,114.587776 709.035039,112.157358 C714.396517,118.192912 722.211298,122 730.918826,122 C740.110216,122 748.306888,117.760016 753.673364,111.134603 C758.664947,112.892182 764.549276,113.909938 770.853486,113.909938 C778.888205,113.909938 786.240117,112.258334 791.928502,109.523989 C795.332535,112.218344 800.150167,113.909938 805.510645,113.909938 C810.764153,113.909938 815.504807,112.287327 818.895844,109.68595 C821.41213,110.929652 825.127075,111.720463 829.280896,111.720463 C836.857744,111.720463 843,109.099091 843,105.867865 C843,102.636639 836.857744,100.016267 829.280896,100.016267" id="Fill-41" fill="#FFFFFF"></path>
        <path d="M656.036328,5.01543719 C655.152235,4.69250561 670.678925,9.43082897 672.731885,19.7307519 C674.783853,30.0296781 664.384107,39 664.384107,39 C664.384107,39 681.279106,14.2199841 656.036328,5.01543719" id="Fill-42" fill="#D2E5F9"></path>
        <path d="M616.190587,20.0151369 C613.535351,19.9221833 639.38189,20.0151369 646.568624,27.7616053 C653.755357,35.5070633 655.485314,47.2949916 652.80833,51 C652.80833,51 654.743904,21.3619534 616.190587,20.0151369" id="Fill-44" fill="#D2E5F9"></path>
        <path d="M700,69 C689.189702,46.1065306 653,50.0914687 653,50.0914687 C691.202996,40.2576377 699.781811,68.2528241 700,69" id="Fill-45" fill="#D2E5F9"></path>
        <path d="M777,82 C768.684448,74.3205679 761.489275,72.1345111 755.994127,72.1345111 C748.962571,72.1345111 744.713509,75.71307 744.456111,75.9399439 L744.446134,75.9500272 C731.683981,67.8612136 721.826036,65.5249158 714.695712,65.5249158 C707.68411,65.5249158 703.311336,67.7835723 701.406791,69.0530583 C701.037654,69.3152237 700.668517,69.5975558 700.29938,69.8899712 L700.289404,69.9000544 L700.279427,69.8798879 C692.213291,52.6919152 670.09901,50.4725835 659.215464,50.4725835 C655.427323,50.4725835 653,50.7418073 653,50.7418073 C653,50.7418073 655.427323,50.4725835 659.215464,50.4725835 C670.09901,50.4725835 692.213291,52.6919152 700.279427,69.8798879 C700.092863,69.2365741 693.819535,48.6253252 668.272283,48.6253252 C663.797747,48.6253252 658.727605,49.2585557 653,50.7418073 C653,50.7418073 664.742538,43.2801742 676.644702,42.8062597 C677.347059,42.7780265 678.024475,42.7659266 678.674954,42.7659266 C689.033728,42.7659266 692.856787,46.0329119 692.856787,46.0329119 C692.856787,46.0329119 702.263786,32 715.915858,32 C719.434629,32 723.231748,32.9306875 727.226406,35.2740436 C746.730791,46.7084921 744.406227,54.9465384 744.406227,54.9465384 C744.406227,54.9465384 745.091624,54.8759554 746.327734,54.8759554 C749.398552,54.8759554 755.867423,55.3065118 763.691126,58.3042733 C774.66546,62.5090044 777,82 777,82 C777,82 766.582364,69.6358723 755.89436,69.6358723 C751.948588,69.6358723 747.963907,71.3228064 744.456111,75.9399439 C744.713509,75.71307 748.962571,72.1345111 755.994127,72.1345111 C761.489275,72.1345111 768.684448,74.3205679 777,82 M714.695712,65.5249158 C721.826036,65.5249158 731.683981,67.8612136 744.446134,75.9500272 C744.446134,75.9500272 732.698608,63.4427168 717.782493,63.4427168 C712.587642,63.4427168 707.006694,64.96126 701.406791,69.0530583 C703.311336,67.7835723 707.68411,65.5249158 714.695712,65.5249158 M701.406791,69.0530583 C700.738354,69.4957146 700.379194,69.8193881 700.29938,69.8899712 C700.668517,69.5975558 701.037654,69.3152237 701.406791,69.0530583" id="Fill-49" fill="#F2F7FD"></path>
        <path d="M700,69 C691.981536,52.0178851 669.997953,49.825134 659.17873,49.825134 C655.412977,49.825134 653,50.0911334 653,50.0911334 C658.693754,48.6256464 663.733931,48 668.182022,48 C693.578287,48 699.814539,68.3643911 700,69" id="Fill-50" fill="#D2E5F9"></path>
        <path d="M544.908591,53.836199 C540.549099,60.0881526 535.401507,63.8083151 533.097062,65.2787746 L533.057158,65.2997812 C532.518457,65.6488903 532.149347,65.8589559 531.979755,65.9499844 L531.899948,66 C532.568337,65.4198187 550.18587,50.0650206 546.654383,35.6605194 C544.868687,28.3682407 537.676025,21.3150367 520.138299,16.5435457 C518.232892,16.0343866 536.508838,13.5135989 544.619288,26.1775562 C546.774094,29.5486096 548.220607,32.4895285 549.058587,35.1603631 C551.382984,42.5026575 549.178299,47.7242892 544.908591,53.836199" id="Fill-54" fill="#D2E5F9"></path>
        <path d="M439.377361,42 C439.377361,42 475.818568,44.4079355 469.195364,65.0304936 C462.571153,85.6520411 438,87 438,87 C438,87 500.025511,57.2913504 439.377361,42" id="Fill-60" fill="#D2E5F9"></path>
        <path d="M620.798312,90 C616.384875,81.6010105 610.734437,79.2561759 605.803418,79.2561759 C599.962133,79.2561759 595.129035,82.5453466 594.549503,82.9574933 L594.509535,82.9775005 L594.489552,82.9975076 C592.269344,67.9091372 584.397699,63.95573 576.764861,63.95573 C568.633425,63.95573 560.771772,68.4383255 560.287163,68.7224266 L560.26718,68.7324302 C554.629731,64.4999237 548.662548,63.2844911 543.669579,63.2844911 C537.192808,63.2844911 532.355713,65.3282185 532,65.481273 C532.355713,65.3282185 537.192808,63.2844911 543.669579,63.2844911 C548.662548,63.2844911 554.629731,64.4999237 560.26718,68.7324302 C560.26718,68.7324302 555.167297,61.1017142 545.441149,61.1017142 C541.949967,61.1017142 537.860269,62.0860645 533.199032,64.7600163 L533.159064,64.7810238 L533.199032,64.7600163 C535.507169,63.2894929 540.663006,59.5691687 545.029481,53.3169433 C549.306029,47.2047678 551.514246,41.9829092 549.186125,34.6402957 C549.186125,34.6402957 553.933293,31 560.108308,31 C562.356493,31 564.794525,31.483172 567.261533,32.7986402 C576.504071,37.7313959 572.457338,47.8850099 572.457338,47.8850099 C572.457338,47.8850099 580.20908,43.5374625 588.29855,43.5374625 C591.000368,43.5374625 593.737159,44.0216348 596.23814,45.3140948 C606.230073,50.4859357 607.648928,65.4912766 607.648928,65.4912766 C607.648928,65.4912766 613.124507,62.6012479 618.846888,62.6012479 C621.708577,62.6012479 624.631218,63.323505 626.963335,65.4912766 C633.957689,71.9935909 632.708697,77.1954424 632.708697,77.1954424 C632.708697,77.1954424 634.833981,75.7659336 637.100152,75.7659336 C638.719844,75.7659336 640.410479,76.4951932 641.451639,78.9960834 C643.636874,84.2549552 638.669884,84.5730684 637.408902,84.5730684 C637.286002,84.5730684 637.198073,84.5700673 637.155107,84.5680666 L637.125131,84.5680666 C636.59456,84.4980417 636.038009,84.4600281 635.451483,84.4600281 C632.037239,84.4600281 627.649781,85.7344818 622.047304,89.2097187 C624.086658,88.0152936 628.400175,85.8975398 633.22528,85.8975398 C633.292226,85.8975398 633.36117,85.8975398 633.428116,85.8985402 C633.36117,85.8975398 633.292226,85.8975398 633.22528,85.8975398 C628.400175,85.8975398 624.086658,88.0152936 622.047304,89.2097187 L621.947385,89.2687397 L621.797506,89.3597721 C621.517731,89.5298327 621.237957,89.7098967 620.948191,89.8999644 L620.83828,89.9799929 L620.798312,90 M605.803418,79.2561759 C610.734437,79.2561759 616.384875,81.6010105 620.798312,90 C620.798312,90 617.509967,77.1984435 607.549009,77.1984435 C604.074813,77.1984435 599.788274,78.7569983 594.549503,82.9574933 C595.129035,82.5453466 599.962133,79.2561759 605.803418,79.2561759 M621.797506,89.3597721 C621.397828,89.5988572 621.108062,89.7899252 620.948191,89.8999644 C621.237957,89.7098967 621.517731,89.5298327 621.797506,89.3597721 M576.764861,63.95573 C584.397699,63.95573 592.269344,67.9091372 594.489552,82.9975076 C594.489552,82.9975076 594.969164,60.710575 579.783424,60.710575 C575.004282,60.710575 568.672394,62.9183608 560.287163,68.7224266 C560.771772,68.4383255 568.633425,63.95573 576.764861,63.95573" id="Fill-64" fill="#F2F7FD"></path>
        <path d="M532,66 C532.604177,65.4700941 547.141138,52.6628608 547.13717,39.4594551 C547.13717,38.1402206 546.991334,36.8179695 546.672876,35.5027571 L549.063791,35 C551.37534,42.3804736 549.182841,47.6292572 544.936735,53.7729484 C540.601341,60.0574116 535.482204,63.7969186 533.190497,65.2750243 L533.150814,65.2961401 C532.793665,65.5072981 532.436516,65.718456 532.079366,65.9497243 L532,66" id="Fill-65" fill="#D2E5F9"></path>
        <path d="M858.462299,52.2065393 C858.16267,52.0131295 857.827085,51.8237282 857.46753,51.6373333 C857.967911,51.610276 858.463298,51.5661826 858.942705,51.4850106 C858.73596,51.7154989 858.578156,51.9560085 858.462299,52.2065393 Z M909.96356,55.7239915 C906.066383,55.7239915 903.117033,56.0176136 900.91376,56.5216815 C898.48177,54.6176476 893.087446,52.8499023 886.310833,52.7426752 C885.34403,51.9590149 883.867857,51.195397 882.001167,50.5540382 C883.608178,50.8216051 885.269122,50.9639066 886.970017,50.9639066 C900.900776,50.9639066 912.192801,41.5700042 912.192801,29.9824544 C912.192801,18.3939023 900.900776,9 886.970017,9 C876.065513,9 866.778007,14.7581996 863.258363,22.818276 C856.340925,24.461758 851.161335,29.5114565 850.513137,35.6524671 C847.90936,37.2398301 846.202472,39.7812144 846.148539,42.6613163 C845.59822,42.5190149 845.015941,42.4408493 844.41069,42.4408493 C841.083807,42.4408493 838.387145,44.7447304 838.387145,47.5857495 C838.387145,47.6999915 838.398131,47.8132314 838.406121,47.9264713 C837.422339,47.3292059 836.221824,46.9734522 834.922433,46.9734522 C831.955105,46.9734522 829.496148,48.8063355 828.996766,51.2174437 C828.299629,51.8467771 828,52.5683057 828,53.343949 C828,55.8522633 830.321127,59.3095881 839.960198,59.3095881 C840.601404,59.3095881 841.232623,59.2995669 841.855852,59.2825308 C842.251362,59.2955584 842.643876,59.3095881 843.067352,59.3095881 C850.598032,59.3095881 856.996114,58.0669554 859.444084,56.3282718 C860.968198,57.9557197 864.134279,59.3095881 870.166813,59.3095881 C871.289424,59.3095881 872.385068,59.2805265 873.44975,59.227414 C874.571362,61.2436858 877.688504,63.165758 884.874611,63.165758 C888.89863,63.165758 892.593058,62.808 895.545404,62.2127389 C896.248534,64.9475329 899.509498,68 909.053686,68 C920.070052,68 929,65.6079321 929,62.6586837 C929,59.7084331 920.978927,55.7239915 909.96356,55.7239915 L909.96356,55.7239915 Z" id="Fill-151" fill="#D2E5F9"></path>
        <path d="M943.755765,28.7329505 C938.60215,28.7329505 933.95751,30.2313533 930.639197,32.6291958 C930.377724,28.1966695 926.224094,24.6705476 921.126367,24.6705476 C918.813028,24.6705476 916.692302,25.396865 915.039632,26.6037459 C911.376015,16.3447608 901.553808,9 890.006079,9 C875.330652,9 863.433626,20.8608633 863.433626,35.4906876 C863.433626,36.6975685 863.522447,37.8835553 863.680129,39.0476531 C861.026477,40.1629981 858.986588,41.9817766 858.019536,44.1637138 C856.558481,43.9458186 854.961698,43.8234391 853.287073,43.8234391 C846.350052,43.8234391 840.728381,45.8839917 840.728381,48.4251078 L840.750336,48.5882805 C839.85514,48.4838102 838.881103,48.4251078 837.859163,48.4251078 C833.518909,48.4251078 830,49.4548866 830,50.7264396 C830,51.9969977 833.518909,53.0267765 837.859163,53.0267765 C840.863109,53.0267765 843.471852,52.5332786 844.794187,51.8079562 C847.030681,52.5621323 850.006684,53.0267765 853.287073,53.0267765 C855.643325,53.0267765 857.839898,52.7850024 859.725099,52.3711009 C861.970574,54.688352 865.628204,56.2026742 869.769858,56.2026742 C870.901577,56.2026742 871.991381,56.0802946 873.031285,55.8703591 C877.635008,59.686013 883.551086,61.9813751 890.006079,61.9813751 C893.793447,61.9813751 897.393193,61.1864058 900.652624,59.7626246 C904.427018,63.5384803 910.489801,66 917.348979,66 C927.526469,66 935.974445,60.5993821 937.729908,53.4824661 C939.618103,53.9451204 941.641026,54.2087835 943.755765,54.2087835 C953.832459,54.2087835 962,48.5056992 962,41.4703695 C962,34.4360348 953.832459,28.7329505 943.755765,28.7329505" id="Fill-152" fill="#FFFFFF"></path>
        <path d="M896.003159,13.0025102 C895.736967,12.9164224 912.385834,14.9815403 910.906986,29 C910.906986,29 911.33388,17.9500855 896.003159,13.0025102" id="Fill-153" fill="#D2E5F9"></path>
        <path d="M920.170409,40 C920.170409,40 925.082778,28.835528 911,29.007622 C911,29.007622 922.46252,28.3202764 920.170409,40" id="Fill-154" fill="#D2E5F9"></path>
        <path d="M886,52.9687825 C886,52.9687825 897.13963,57.2228994 905.770189,53.4180756 C914.40175,49.6132517 912.899913,40 912.899913,40 C912.899913,40 909.995359,59.1920981 886,52.9687825" id="Fill-156" fill="#D2E5F9"></path>
        <path d="M883,27.8854338 C883,27.8854338 883.517015,23.3765571 891.443881,25.6314785 C899.371782,27.8854338 896.488909,34 896.488909,34 C896.488909,34 895.75268,22.8934977 883,27.8854338" id="Fill-157" fill="#D2E5F9"></path>
        <path d="M906,37 C906,37 904.38,29.7349558 896,34.786883 C896,34.786883 902.88,31.6356996 906,37" id="Fill-158" fill="#D2E5F9"></path>
        <path d="M872.632683,38.9650368 C872.725505,39.810705 868.007868,25.0013711 883,28.5503385 C883,28.5503385 871.357103,27.409599 872.632683,38.9650368" id="Fill-159" fill="#D2E5F9"></path>
        <path d="M459.187738,-18.2868217 C457.59277,-18.2868217 456.090975,-17.9623256 454.759497,-17.3989922 C454.444911,-20.2972868 453.194584,-22.9527132 451.287034,-25.1627132 C451.850082,-25.8227907 452.202738,-26.6713178 452.202738,-27.6085271 C452.202738,-29.6965891 450.520608,-31.3875969 448.445746,-31.3875969 C447.106253,-31.3875969 445.938079,-30.6771318 445.272841,-29.6149612 C442.793226,-30.7426357 439.973979,-31.3875969 436.977402,-31.3875969 C434.255336,-31.3875969 431.684552,-30.8454264 429.376256,-29.904186 C429.248017,-30.0694574 429.12078,-30.2347287 428.988534,-30.3969767 C430.69471,-32.0476744 431.761695,-34.3614729 431.761695,-36.9302326 C431.761695,-41.9397674 427.725183,-46 422.744914,-46 C418.704394,-46 415.286032,-43.3274419 414.139899,-39.6441085 C411.946818,-40.174186 409.647538,-40.4573643 407.277127,-40.4573643 C392.233128,-40.4573643 380.038433,-29.091938 380.038433,-15.0710853 C380.038433,-14.7143411 380.052459,-14.3606202 380.067487,-14.0068992 C376.821445,-12.6353488 374.541202,-9.40751938 374.541202,-5.64255814 C374.541202,-3.02643411 375.649264,-0.675348837 377.411544,0.980387597 C376.787382,1.56689922 376.247377,2.24007752 375.80856,2.9827907 C374.241644,1.6596124 372.222887,0.860465116 370.016781,0.860465116 C365.036512,0.860465116 361,4.92069767 361,9.93023256 C361,14.9387597 365.036512,19 370.016781,19 C373.316923,19 376.194278,17.2102326 377.766204,14.5497674 C379.33312,15.8729457 381.351877,16.672093 383.557983,16.672093 C388.53725,16.672093 392.574764,12.6118605 392.574764,7.60232558 C392.574764,7.13271318 392.528678,6.67620155 392.45955,6.22573643 C396.725489,8.80860465 401.810954,10.3162016 407.277127,10.3162016 C417.009239,10.3162016 425.543122,5.55457364 430.360087,-1.60046512 C432.4089,-0.894031008 434.638049,-0.492945736 436.977402,-0.492945736 C442.485654,-0.492945736 447.407815,-2.65155039 450.684914,-6.03860465 C452.379067,-3.58573643 455.548966,-1.93 459.187738,-1.93 C464.606824,-1.93 469,-5.59217054 469,-10.1089147 C469,-14.6246512 464.606824,-18.2868217 459.187738,-18.2868217" id="Fill-162" fill="#FFFFFF"></path>
        <path d="M334.175738,-4.25068912 C334.264828,-4.76022354 334.32051,-5.28055734 334.32051,-5.8146358 C334.32051,-10.8873995 330.170736,-15 325.054133,-15 C319.936517,-15 315.786744,-10.8873995 315.786744,-5.8146358 C315.786744,-4.81814749 315.952775,-3.85994789 316.249404,-2.960654 C310.478799,-2.67299777 306,-0.607370766 306,1.90397614 C306,4.61167541 311.203668,6.80591323 317.622201,6.80591323 C318.428061,6.80591323 319.213673,6.77155156 319.973976,6.70577352 C321.757801,9.25835442 325.294069,11 329.368926,11 C335.239757,11 340,7.38907979 340,2.93580788 C340,-0.204848393 337.62899,-2.91843824 334.175738,-4.25068912" id="Fill-163" fill="#FFFFFF"></path>
        <g id="Fill-183" transform="translate(208.000000, -4.000000)">
            <path d="M139.28189,43.0716222 C133.374915,43.0716222 127.955929,43.5290341 123.703308,44.2890569 C121.6772,40.4130404 115.071809,37.5686974 107.216885,37.5686974 C106.475382,37.5686974 105.749911,37.6026537 105.032457,37.6515908 C105.332064,36.5520046 105.506418,35.411471 105.506418,34.2329862 C105.506418,26.0185476 97.8318591,19.3591097 88.3656686,19.3591097 C86.4367582,19.3591097 84.5890123,19.6477386 82.8585041,20.1570837 C83.4867777,18.514196 83.845505,16.7374804 83.845505,14.8738764 C83.845505,6.65943787 77.1649617,0 68.9222515,0 C60.6815453,0 54,6.65943787 54,14.8738764 C54,23.088315 60.6815453,29.7477529 68.9222515,29.7477529 C70.0415205,29.7477529 71.1277226,29.6149237 72.1758474,29.3822229 C71.5706204,30.9042659 71.2249196,32.5321729 71.2249196,34.2329862 C71.2249196,42.4474247 78.899478,49.1068626 88.3656686,49.1068626 C89.1181942,49.1068626 89.8536852,49.0499358 90.58116,48.9690398 C92.4078632,53.0018548 99.1525365,56 107.216885,56 C112.933474,56 117.98271,54.4889428 121.097024,52.1759167 C125.614181,53.257526 132.078286,53.9386503 139.28189,53.9386503 C152.933565,53.9386503 164,54.5069197 164,51.5057783 C164,48.5056356 152.933565,43.0716222 139.28189,43.0716222" id="Fill-179" fill="#FFFFFF"></path>
            <path d="M150.117004,108.300708 C144.983869,107.295041 138.142351,106.680578 130.627864,106.680578 C124.437348,106.680578 118.709125,107.098936 114.010324,107.807931 C111.992415,105.30382 103.736065,103.315616 93.1562743,102.758477 C94.0429159,102.158094 94.811738,101.528546 95.4447681,100.873857 C96.5311037,100.974423 97.6374087,101.031746 98.7626847,101.031746 C111.620984,101.031746 122.217749,94.2967941 123.70547,85.6128589 C124.961545,85.3926179 126.183673,85.1080141 127.36686,84.7630703 C128.640908,86.5048856 130.621873,87.9480179 133.053148,88.9044073 C132.673729,90.0910944 132.46405,91.3532066 132.46405,92.6676134 C132.46405,99.4478208 137.921689,104.944797 144.653375,104.944797 C150.286744,104.944797 155.012504,101.092086 156.411361,95.8646291 C157.359907,96.0013998 158.382341,96.1130288 159.470673,96.1924765 C162.53398,97.357039 166.273251,98.0489379 170.323046,98.0489379 C171.899631,98.0489379 173.420301,97.9332862 174.88306,97.7381868 C175.233523,99.2969708 175.866553,100.763233 176.723241,102.102782 C175.361327,102.028363 173.958476,101.988136 172.521678,101.988136 C160.313382,101.988136 150.391584,104.801992 150.117004,108.300708 Z M163.446582,78.7330905 L163.633296,78.7371132 L163.636291,78.7753285 L163.458563,78.8105269 L163.446582,78.7330905 Z M206.066284,101.307299 C207.143633,99.3532881 207.76568,97.1639509 207.76568,94.84086 C207.76568,86.6999851 200.332069,80.0997921 191.162119,80.0997921 C190.272482,80.0997921 189.405809,80.1792398 188.555113,80.2989142 C188.865637,79.6019869 189.044363,78.8688556 189.044363,78.1095769 C189.044363,73.6625172 183.345095,70.0582064 176.313868,70.0582064 C173.943499,70.0582064 171.731888,70.4745525 169.831799,71.1885762 C170.031493,70.8225134 170.137331,70.4443825 170.137331,70.0582064 C170.137331,66.9567291 163.386674,64.4425615 155.059432,64.4425615 C151.130452,64.4425615 147.562917,65.0067407 144.880028,65.9239091 C144.882025,65.809263 144.891011,65.6956226 144.891011,65.5809766 C144.891011,54.2139217 132.590856,45 117.419101,45 C102.246347,45 89.9461925,54.2139217 89.9461925,65.5809766 C89.9461925,66.0868271 89.979142,66.588655 90.0270686,67.0864602 C80.4567314,69.5614068 73.6351828,75.9805798 73.6351828,83.5140318 C73.6351828,83.6065531 73.6431706,83.6980688 73.6451675,83.7905902 C70.1205676,83.3430684 66.350344,83.0976856 62.4253575,83.0976856 C58.3116601,83.0976856 54.3657058,83.3661987 50.6963276,83.8559586 C50.4227468,80.4387019 47.5880898,77.7495481 44.1243966,77.7495481 C40.4799802,77.7495481 37.5265053,80.725317 37.5265053,84.3960018 C37.5265053,85.2558471 37.6942483,86.0744601 37.988797,86.8287104 C31.395898,89.2372831 27.2921854,92.6072734 27.2921854,96.3403096 C27.2921854,98.0921816 28.2027902,99.7625946 29.8412799,101.292214 C27.8123884,101.123262 25.6756621,101.031746 23.4640505,101.031746 C10.5059038,101.031746 0,104.137246 0,107.970849 C0,111.803446 10.5059038,114.910958 23.4640505,114.910958 C36.1386316,114.910958 46.4598184,111.938206 46.9071331,108.222266 C50.8580798,108.956403 55.2293825,109.416998 59.8483058,109.543713 C61.0324915,112.821182 72.7844862,115.396695 87.1165279,115.396695 C92.8587302,115.396695 98.1855689,114.98236 102.586826,114.276382 C105.617183,116.985649 117.017716,119 130.627864,119 C145.27043,119 157.355913,116.666852 159.210073,113.64784 C162.933368,114.442317 167.536316,114.910958 172.521678,114.910958 C177.38922,114.910958 181.889326,114.46243 185.565693,113.703152 C188.879616,114.465447 192.865509,114.910958 197.156934,114.910958 C208.668297,114.910958 218,111.710925 218,107.762676 C218,104.909599 213.113487,102.45376 206.066284,101.307299 L206.066284,101.307299 Z" id="Fill-165" fill="#D2E5F9"></path>
        </g>
        <path d="M209.939637,-2.12578271 C201.254186,-2.12578271 193.565427,0.740026608 188.830643,5.1435388 C187.674521,4.31508647 186.386042,3.62371619 185.009325,3.06644789 C183.881279,-3.15886475 178.4075,-8.13454545 171.332397,-9.47357871 C170.324677,-17.084612 162.832448,-23 153.727865,-23 C143.937431,-23 136,-16.1617916 136,-7.72727273 C136,-0.423184035 141.957084,5.67597339 149.911561,7.18089579 C150.621478,12.5449756 154.557104,17.0527894 160.005816,19.2540488 C161.330392,26.5611175 168.646145,32.1586341 177.50005,32.1586341 C182.680036,32.1586341 187.325579,30.2335255 190.567332,27.1819601 C195.33721,30.7530466 202.248872,33 209.939637,33 C224.332498,33 236,25.1366563 236,15.436612 C236,5.73656763 224.332498,-2.12578271 209.939637,-2.12578271" id="Fill-210" fill="#FFFFFF"></path>
        <path d="M235.743586,43.888 C234.338146,43.888 232.949724,43.89 231.574315,43.895 C231.121851,42.435 230.142848,41.101 228.784457,39.963 C230.509224,39.969 232.258015,39.971 234.030832,39.971 C261.075539,39.971 283,39.401 283,38.698 C283,37.995 261.075539,37.425 234.030832,37.425 C231.262996,37.425 228.55322,37.431 225.911513,37.443 C232.173929,33.521 236.203057,27.427 236.203057,20.578 C236.203057,8.748 224.196757,-0.843 209.386584,-0.843 C200.878868,-0.843 193.302105,2.325 188.389072,7.261 C187.321979,6.728 186.160789,6.267 184.929528,5.88 C183.957532,-2.131 177.266677,-8.365 169.052262,-8.639 C166.514662,-17.504 158.360308,-24 148.671382,-24 C136.95638,-24 127.458649,-14.513 127.458649,-2.809 C127.458649,-2.57 127.486678,-2.337 127.494686,-2.1 C117.213153,-0.107 109.749507,5.868 109.749507,12.928 C109.749507,13.659 109.835595,14.376 109.989753,15.08 C107.271968,13.73 103.956572,12.928 100.367895,12.928 C91.1704726,12.928 83.7138334,18.142 83.7138334,24.574 C83.7138334,26.355 84.3024364,28.036 85.3244835,29.545 C82.8529514,30.958 81.1431998,32.592 80.4314706,34.359 C65.0567193,35.109 55.3507757,36.204 55.3507757,37.425 C55.3507757,38.692 65.7904711,39.824 82.1782602,40.575 C82.7458417,41.135 83.4165288,41.676 84.1873184,42.189 C56.8443058,42.496 38,43.141 38,43.888 C38,44.609 55.6040352,45.236 81.466531,45.554 C77.0079633,46.172 74.371262,46.932 74.371262,47.755 C74.371262,49.823 91.0033013,51.5 111.521322,51.5 C116.010921,51.5 120.315331,51.42 124.299413,51.272 L124.295409,51.305 C124.295409,53.53 126.694867,55.333 129.6549,55.333 C132.614932,55.333 135.01439,53.53 135.01439,51.305 C135.01439,51.085 134.973348,50.873 134.928302,50.662 L135.03341,50.654 C136.101504,50.662 137.178607,50.667 138.269725,50.667 C141.431965,50.667 144.50211,50.634 147.447127,50.572 C146.393048,50.844 145.777417,51.161 145.777417,51.5 C145.777417,52.512 151.173946,53.333 157.830765,53.333 C164.487585,53.333 169.884114,52.512 169.884114,51.5 C169.884114,50.795 167.261427,50.183 163.422494,49.877 C169.013222,49.471 173.280594,48.935 175.576946,48.321 C176.030411,48.2 176.407797,48.076 176.702099,47.949 C177.709131,48.422 178.803251,48.842 179.975452,49.203 C180.36385,54.106 185.987612,58 192.887681,58 C198.643578,58 203.51657,55.292 205.202297,51.549 C207.915076,53.845 212.190456,55.333 217.0164,55.333 C221.947452,55.333 226.303915,53.78 229.004682,51.399 C238.017916,51.128 244.544603,50.33 244.544603,49.388 C244.544603,48.541 239.25118,47.81 231.61836,47.474 L231.666409,47.27 C233.010787,47.275 234.368177,47.277 235.743586,47.277 C261.842324,47.277 283,46.518 283,45.583 C283,44.646 261.842324,43.888 235.743586,43.888" id="Fill-211" fill="#D2E5F9"></path>
        <path d="M219.942425,44 L219.932404,43.9690782 C216.261721,37.0725224 210.881461,35.3618494 206.450187,35.3618494 C202.362632,35.3618494 199.081766,36.8151734 198.687942,36.9977117 L198.647858,37.0176612 C196.36508,27.6194332 189.635997,25.7780907 184.711691,25.7780907 C182.328704,25.7780907 180.368601,26.2090008 179.537863,26.4244558 L179.357485,26.4733322 L179.327422,26.4843044 L179.167087,26.5242035 L179.106961,26.544153 C170.285499,21.3552778 162.827891,19.7992138 157.054808,19.7992138 C148.722369,19.7992138 143.90128,23.0410139 143.55255,23.2824033 L143.542529,23.2923781 L143.55255,23.2724286 C143.803074,22.6440181 147.951757,11.6009505 128.030063,3.61116001 L128,3.60218271 C128,3.60218271 133.326147,-7 141.003214,-7 C143.03647,-7 145.233067,-6.25687966 147.540897,-4.37763305 C158.143086,4.25054274 154.144718,7.35169864 153.824047,7.58211582 C154.321087,7.46940093 161.617357,2.54685208 167.544763,2.54685208 C169.020852,2.54685208 170.410761,2.85108256 171.591231,3.61116001 C178.433552,8.01801326 175.820082,18.5832893 175.399201,19.0231767 C175.902254,18.6102212 180.120081,15.3275245 186.097591,15.3275245 C187.621781,15.3275245 189.26021,15.5409846 190.981814,16.0706448 C199.900479,18.8137065 196.894187,25.0668896 196.894187,25.0668896 C196.894187,25.0668896 203.167316,25.5466761 207.045433,26.544153 C210.923549,27.54163 211.424598,32.5290148 211.424598,32.5290148 C211.424598,32.5290148 213.208331,31.4976237 215.07123,31.4976237 C216.361931,31.4976237 217.68971,31.9923722 218.489384,33.6651411 C220.443473,37.7657689 219.942425,44 219.942425,44" id="Fill-212" fill="#EAF3FC"></path>
        <polyline id="Fill-213" fill="#FFFFFF" points="143.495 23.5105 143.505 23.4895 143.505 23.5005 143.495 23.5105"></polyline>
        <path d="M143.138755,22.9299848 L143.07065,23 C143.313882,22.3617453 147.341802,11.1278539 128,3 C128.632403,3.08219178 138.809227,4.57280568 143.051191,11.2810756 C147.069383,17.6321664 143.722511,22.2095383 143.138755,22.9299848" id="Fill-214" fill="#FFFFFF"></path>
        <path d="M179,26 C157.781003,13.5225925 144.582018,22.3873439 144,22.7898409 L144,22.7790422 L144.069053,22.7113049 C157.889515,8.16251031 179,26 179,26" id="Fill-215" fill="#FFFFFF"></path>
        <path d="M198.976654,37 C195.613199,22.986621 182.527567,25.692874 180,26.3554049 C200.44941,20.2011851 198.976654,37 198.976654,37" id="Fill-216" fill="#FFFFFF"></path>
        <path d="M220,44 C213.026415,31.1233654 199.812264,36.8592327 199,37.2283823 C213.234434,27.3456379 219.692925,43.2345718 220,44" id="Fill-217" fill="#FFFFFF"></path>
        <path d="M132,40 C132,40 118.534172,27.7695716 104.509,27.7695716 C100.971547,27.7695716 97.4016693,28.5465288 94,30.493353 C94,30.493353 96.8848831,26 105.548652,26 C108.177169,26 111.336658,26.4135894 115.111224,27.4908912 C131.324125,32.1221073 132,40 132,40" id="Fill-218" fill="#BAD6F5"></path>
        <path d="M159,42 C152.566348,38.8135488 147.071123,37.8374767 142.748436,37.8374767 C135.899901,37.8374767 132,40.2911746 132,40.2911746 C134.972341,37.1112492 138.599605,36 142.219954,36 C150.631215,36 159,42 159,42" id="Fill-219" fill="#BAD6F5"></path>
        <path d="M174,43 C170.263448,40.9407094 167.352414,40.2546321 165.130345,40.2546321 C160.686207,40.2546321 159,43 159,43 C159.632069,39.9994706 161.509655,39 163.731724,39 C168.175862,39 174,43 174,43" id="Fill-220" fill="#BAD6F5"></path>
        <path d="M785,-7.50050174 C785,-2.8052063 768.210033,1 747.5,1 C726.788963,1 710,-2.8052063 710,-7.50050174 C710,-12.1937902 726.788963,-16 747.5,-16 C768.210033,-16 785,-12.1937902 785,-7.50050174" id="Fill-234" fill="#ADCFF7"></path>
        <path d="M792.829685,-11.3904417 C790.891784,-11.3904417 789.032798,-11.279639 787.275701,-11.1009572 C789.063764,-12.6771503 790.102639,-14.5637905 790.102639,-16.5911801 C790.102639,-22.171243 782.241155,-26.7031724 772.541663,-26.7031724 C768.69583,-26.7031724 765.149671,-25.9834541 762.252809,-24.7656229 C760.614584,-32.8622043 752.213685,-39.0302202 742.06468,-39.0302202 C738.958045,-39.0302202 736.021227,-38.432285 733.384084,-37.4031177 C731.225422,-48.094079 723.494797,-56 714.284775,-56 C705.444352,-56 697.962457,-48.7139751 695.475152,-38.6708601 C694.686007,-38.9004513 693.876883,-39.0302202 693.027803,-39.0302202 C690.660368,-39.0302202 688.482727,-38.0719267 686.734621,-36.4847532 C686.345043,-36.5047176 685.965454,-36.5346643 685.564888,-36.5346643 C677.03413,-36.5346643 669.902855,-31.5245864 668.14476,-24.8265144 C663.969283,-26.5524409 659.133522,-27.5506632 653.990094,-27.5506632 C640.244985,-27.5506632 628.767419,-20.5042117 625.980438,-11.1099412 C624.891617,-11.2896212 623.76284,-11.3904417 622.614085,-11.3904417 C615.212104,-11.3904417 608.92891,-7.41651853 606.601432,-1.89634897 C602.915425,-3.64323807 597.351453,-4.76124709 591.118205,-4.76124709 C581.378756,-4.76124709 573.257554,-2.03709832 571.398568,1.57646657 C571.139848,2.08555996 571,2.6146178 571,3.15465609 C571,7.52587174 580.00924,11.0695611 591.118205,11.0695611 C597.50129,11.0695611 603.165154,9.90164091 606.851161,8.08587447 C609.357446,13.3055791 615.461833,17 622.614085,17 C628.757429,17 634.131607,14.2648708 637.108383,10.1621769 C641.843253,12.6866813 647.676933,14.1740325 653.990094,14.1740325 C665.95713,14.1740325 676.206027,8.83454123 680.491384,1.24705319 C682.928744,1.49660878 685.524931,1.62637768 688.222009,1.62637768 C702.287772,1.62637768 713.685424,-1.99716942 713.685424,-6.4682073 L713.675435,-6.70778066 C713.875219,-6.69879666 714.084991,-6.68781622 714.284775,-6.68781622 C718.620078,-6.68781622 722.625739,-8.44468754 725.872222,-11.4094079 C729.628153,-7.36660741 735.470823,-4.76124709 742.06468,-4.76124709 C748.437776,-4.76124709 754.141597,-7.19790784 757.897528,-11.010119 C761.044119,-8.27598797 766.428286,-6.4682073 772.541663,-6.4682073 C773.410722,-6.4682073 774.249813,-6.51811842 775.088904,-6.58799398 C774.809207,-6.1687406 774.659369,-5.72952277 774.659369,-5.29030494 C774.659369,-1.91631341 782.800549,0.818815807 792.829685,0.818815807 C797.234912,0.818815807 801.27054,0.299740189 804.417131,-0.579693696 C808.44277,-1.70768494 811,-3.39368248 811,-5.29030494 C811,-8.65531246 802.868809,-11.3904417 792.829685,-11.3904417" id="Fill-241" fill="#FFFFFF"></path>
        <path d="M622.742971,17 C615.572859,17 609.453229,13.3387507 606.940686,8.16591295 C603.245474,9.96537592 597.567467,11.1228095 591.168443,11.1228095 C580.031737,11.1228095 571,7.61093838 571,3.27897117 C571,2.7437818 571.140198,2.21947428 571.399563,1.71495195 C575.674592,4.09115319 583.443549,7.41308649 593.45667,7.41308649 C598.036128,7.41308649 603.083246,6.71862634 608.48286,4.92114189 C608.48286,4.92114189 611.672358,9.37874505 618.681243,9.37874505 C621.081628,9.37874505 623.928643,8.85641605 627.249326,7.45265687 C640.267685,1.95336348 640.508024,-7.47427925 640.508024,-7.47427925 C640.508024,-7.47427925 640.975684,5.15163934 653.987033,5.15163934 C654.97743,5.15163934 656.039928,5.07843414 657.181538,4.92114189 C673.314289,2.69530808 677.700475,-8.30525721 677.700475,-8.30525721 C677.700475,-8.30525721 685.245115,-6.22880158 692.90692,-6.22880158 C697.208987,-6.22880158 701.547105,-6.88369135 704.608422,-8.92849067 C713.120426,-14.6167326 714.622545,-18 714.622545,-18 C714.622545,-18 717.438516,-14.8264556 723.182617,-14.8264556 C724.905046,-14.8264556 726.889845,-15.1123516 729.143022,-15.853307 C730.356734,-16.2529678 731.468301,-16.4201526 732.507767,-16.4201526 C735.113442,-16.4201526 737.269483,-15.3745054 739.462575,-14.3278689 C741.654667,-13.2822216 743.884812,-12.2365743 746.633689,-12.2365743 C748.865836,-12.2365743 751.441469,-12.9260882 754.61895,-14.8640475 C754.61895,-14.8640475 757.293722,-12.2128321 761.736988,-12.2128321 C763.734805,-12.2128321 766.088124,-12.7480215 768.717833,-14.3001696 C771.778149,-16.1075466 772.792579,-16.6852742 772.839646,-16.6852742 C772.921761,-16.6852742 769.950571,-14.8640475 769.950571,-14.8640475 C769.950571,-14.8640475 783.222288,0.31910684 797.783823,0.320096099 C799.593375,0.320096099 801.420953,0.0866308649 803.247529,-0.440644432 C803.80131,-0.598925947 804.218898,-0.676088185 804.507305,-0.676088185 C804.812736,-0.676088185 804.973963,-0.590022612 805,-0.421848502 C801.845551,0.44968909 797.799846,0.964104014 793.383618,0.964104014 C786.179458,0.964104014 779.946668,-0.427784059 776.992502,-2.44686263 C775.823854,-3.24618428 775.167929,-4.14245336 775.167929,-5.09016393 C775.167929,-5.5254381 775.318141,-5.96071227 775.598536,-6.37620124 C774.75735,-6.30695308 773.916164,-6.25749011 773.044935,-6.25749011 C766.916292,-6.25749011 761.51868,-8.04903901 758.364232,-10.7586207 C754.598922,-6.98063878 748.880858,-4.56585642 742.491847,-4.56585642 C735.881525,-4.56585642 730.024265,-7.14782363 726.258955,-11.1543245 C723.004365,-8.21622386 718.988702,-6.47512719 714.642573,-6.47512719 C714.44229,-6.47512719 714.231994,-6.48600904 714.031711,-6.49491238 L714.041726,-6.25749011 C714.041726,-5.46806105 713.678213,-4.705342 713.003261,-3.98516111 C709.885865,-0.660260034 700.10407,1.76441492 688.514726,1.76441492 C685.810913,1.76441492 683.208242,1.63581119 680.764797,1.38849633 C676.468738,8.90785755 666.194248,14.1994064 654.19733,14.1994064 C647.868404,14.1994064 642.020157,12.7254098 637.273463,10.2235726 C634.289254,14.2894291 628.901656,17 622.742971,17" id="Fill-242" fill="#F2F7FD"></path>
        <path d="M683.674055,-18 C683.674055,-18 690.912498,-13.3488135 688.512223,-5.8928298 C686.111948,1.56315387 681,2 681,2 C681,2 694.471634,-7.28298035 683.674055,-18" id="Fill-244" fill="#ADCFF7"></path>
        <path d="M629,-9 C629,-9 647.12744,-7.54860407 636.841035,10 C636.841035,10 644.003943,-4.97950141 629,-9" id="Fill-246" fill="#ADCFF7"></path>
        <path d="M43.3189168,66.7969431 C43.7013211,66.7446538 44.0446842,66.6903533 44.3620197,66.6360528 C44.486151,66.716498 44.6283013,66.7959375 44.7764579,66.873366 C44.3179731,66.8472213 43.8314587,66.8210766 43.3189168,66.7969431 M137.147124,62.2346987 C131.999681,62.2346987 127.37379,63.3257357 124.115345,65.0593283 C121.769865,64.5836965 118.933866,64.3031441 115.874632,64.3031441 C114.737429,64.3031441 113.635264,64.3453778 112.57214,64.4187839 C110.885356,63.5600322 107.584867,62.9184823 103.591645,62.7193806 L103.611666,62.6318965 C103.611666,61.7972783 102.336317,61.0964001 100.572452,60.8379701 C101.024931,60.2215593 101.276196,59.5649259 101.276196,58.8831534 C101.276196,55.3656902 94.7773251,52.5139103 86.7608491,52.5139103 C85.184182,52.5139103 83.6695806,52.627539 82.2470765,52.8316686 C81.5913832,51.2086881 79.1217721,50 76.1666475,50 C72.7109938,50 69.9100323,51.6501307 69.9100323,53.6874036 C69.9100323,55.0418985 71.1543479,56.2234363 73.0023018,56.8639807 C72.5187906,57.4994972 72.2455016,58.1762419 72.2455016,58.8831534 L72.2475037,58.8972313 C71.9712116,58.8891868 71.6939184,58.8831534 71.4116199,58.8831534 C65.7045857,58.8831534 61.0776936,60.5664678 61.067683,62.64698 C59.353871,62.3855333 57.3787827,62.2346987 55.2695525,62.2346987 C52.0471454,62.2346987 49.1300611,62.5836294 46.9998087,63.1487565 C45.5162401,62.8420594 43.5471581,62.6540189 41.3798666,62.6540189 C37.1283714,62.6540189 33.62767,63.3719917 33.1111239,64.3011329 C31.6485775,64.2659382 30.1209623,64.2458269 28.5372878,64.2458269 C18.6758611,64.2458269 10.6804073,64.976872 10.6804073,65.8798686 C10.6804073,66.1151706 11.2369958,66.3384058 12.217032,66.5405242 C3.78611781,66.7205202 -2,67.0885567 -2,67.5139103 C-2,68.1152376 9.57924302,68.6029362 23.8613438,68.6029362 C34.8109211,68.6029362 44.1648112,68.3163505 47.9367994,67.9111081 C49.9519301,68.3435007 52.4956196,68.6029362 55.2695525,68.6029362 C61.0076195,68.6029362 65.7856715,67.4978213 66.8487955,66.0337199 C68.226252,66.2810887 69.7718862,66.4248844 71.4116199,66.4248844 C75.1926177,66.4248844 78.4911052,65.6817725 80.2950126,64.5786686 C82.2440734,65.0040223 84.4343892,65.251391 86.7608491,65.251391 C87.274392,65.251391 87.7799265,65.2383187 88.2794547,65.2161963 C88.1683372,65.3780921 88.096261,65.5430046 88.096261,65.7119394 C88.096261,67.4012871 93.8483428,68.7708655 100.942844,68.7708655 C101.062971,68.7708655 101.180095,68.7668432 101.299221,68.7668432 C101.540476,71.0937186 107.965269,72.9610511 115.874632,72.9610511 C117.175007,72.9610511 118.429333,72.9047396 119.628601,72.8102165 C121.219283,76.9048736 128.452931,80 137.147124,80 C147.007549,80 155,76.0229939 155,71.1168466 C155,66.2117048 147.007549,62.2346987 137.147124,62.2346987" id="Fill-247" fill="#D2E5F9"></path>
        <path d="M157.38,64.033452 C156.99,64.033452 156.62,64.0434164 156.24,64.0434164 C156.96,63.2064057 157.38,62.2199288 157.38,61.1736655 C157.38,58.8320285 155.34,56.8192171 152.45,55.9822064 C152.72,55.4730249 152.88,54.9349466 152.88,54.3779359 C152.88,51.6965125 149.48,49.4854093 145.09,49.1555872 C142.53,44.7114591 136.7,41.2049822 129.35,39.6993594 C129.1,36.7498932 125.16,34.4092527 120.31,34.4092527 C119.04,34.4092527 117.84,34.5686833 116.74,34.8576512 C114.82,32.0476868 112,29.9053381 108.71,28.7893238 C107.02,17.5893238 97.32,9 85.61,9 C75.56,9 66.99,15.3264057 63.7,24.2046975 C62.81,23.5779359 61.76,23.2082562 60.62,23.2082562 C57.53,23.2082562 55.02,25.9295374 55.02,29.2765836 C55.02,31.2694662 55.9,33.0241993 57.26,34.1302491 C56.51,35.6348754 56.08,37.3188612 56.08,39.1024911 C56.08,39.7392171 56.15,40.3679715 56.25,40.9758007 C55.79,40.9160142 55.32,40.886121 54.83,40.886121 C51.61,40.886121 48.88,42.1904626 47.85,44.0049822 C44.94,44.8409964 42.45,46.0975089 40.62,47.6419929 C35.28,47.8911032 31.13,49.5551601 30.9,51.6068327 C28.36,52.6441281 26.75,54.2085409 26.75,55.9523132 C26.75,56.0718861 26.77,56.1914591 26.79,56.3000712 C23.23,56.9278292 20.75,58.3427758 20.75,59.9968683 C20.75,60.5060498 21,60.9933096 21.43,61.4427046 C16.39,61.7804982 13,62.3992883 13,63.1067616 C13,63.794306 16.13,64.3911744 20.87,64.7409253 C23.56,64.9302491 26.76,65.0498221 30.21,65.0498221 C38.18,65.0498221 44.86,64.4409964 46.82,63.6049822 C49.56,64.5207117 52.71,65.0498221 56.08,65.0498221 C66.48,65.0498221 74.91,60.086548 74.91,53.9594306 C74.91,53.6096797 74.88,53.2619217 74.82,52.9231317 C78.05,54.5961566 81.72,55.5527402 85.61,55.5527402 C87.84,55.5527402 89.99,55.2348754 92.03,54.6569395 C93.4,56.1117438 95.05,57.2965125 96.88,58.144484 C99.74,64.7010676 109.58,69.5338078 121.27,69.5338078 C122.89,69.5338078 124.48,69.4341637 126.02,69.2538078 L126,69.4939502 C126,74.7451957 132.6,79 140.75,79 C146.07,79 150.74,77.1854804 153.33,74.4562278 C154.7,73.0213523 155.49,71.3264057 155.5,69.513879 C156.12,69.5238434 156.74,69.5338078 157.38,69.5338078 C166.56,69.5338078 174,68.2982206 174,66.7836299 C174,65.2680427 166.56,64.033452 157.38,64.033452" id="Fill-248" fill="#FFFFFF"></path>
        <path d="M140.463687,79 C132.34199,79 125.76491,74.7099465 125.76491,69.4151966 L125.784841,69.1730648 C124.250189,69.3549148 122.66571,69.4553845 121.051336,69.4553845 C109.401933,69.4553845 99.5961045,64.5826071 96.7460365,57.9717049 C94.9223917,57.1167083 93.2781217,55.9221243 91.9128794,54.4552676 C89.8799638,55.0379915 87.7374302,55.3584897 85.5151744,55.3584897 C81.6386834,55.3584897 77.9814284,54.3939812 74.7626453,52.707096 C74.822437,53.0486927 74.8523328,53.3993318 74.8523328,53.7519802 C74.8523328,59.9298582 66.451608,64.9342508 56.0877246,64.9342508 C52.7294278,64.9342508 49.5903669,64.400757 46.8598822,63.4774411 C44.9066888,64.3203813 38.2498868,64.9342508 30.3075645,64.9342508 C26.8695455,64.9342508 23.6806583,64.8136872 21,64.6227949 C22.8136796,62.7329611 25.8929488,60.0102339 28.9622528,59.4787495 C29.5830892,59.3702423 30.1660577,59.3230216 30.709165,59.3230216 C34.3863506,59.3230216 36.2767628,61.4881422 36.2767628,61.4881422 C36.2767628,61.4881422 35.498475,51.0553751 44.3755398,51.0553751 C44.7043938,51.0553751 45.0481957,51.0694409 45.4049524,51.0995818 C53.7558508,51.8018645 52.5500528,57.3276946 51.9421712,59.0969649 C52.3716745,58.1726442 53.5744829,56.3712236 56.396648,56.3712236 C56.9796165,56.3712236 57.6313453,56.4485852 58.3598067,56.6254118 C61.3593538,57.3588402 62.4156727,59.1471997 62.7644572,60.6140564 C62.8242488,58.222879 63.452061,54.725531 66.5014344,54.6160191 C66.6409482,54.6109956 66.7774724,54.6079815 66.9100106,54.6079815 C67.7929337,54.6079815 68.4994715,54.7205075 69.0625094,54.8872871 C67.9364336,53.1692563 67.0395591,50.3460595 68.1656349,46.0760999 C70.3181338,37.8777775 76.6361166,36.370733 81.7781972,36.0291362 C82.0851276,36.0090423 82.3810962,36 82.666103,36 C87.1704062,36 89.0907142,38.4082572 91.7434697,41.5549662 C93.3578439,43.4729316 93.6966631,46.7592934 93.6966631,49.2207996 C94.1799789,48.9455127 94.917409,48.7676815 96.0165786,48.7676815 C97.6827722,48.7676815 100.178076,49.1755882 103.871206,50.2656838 C118.440435,54.5557373 112.829986,64.060165 112.680507,64.3203813 C112.899743,64.1536017 116.407519,61.5042174 121.33734,61.5042174 C122.919825,61.5042174 124.6488,61.7774948 126.462479,62.4928386 C133.109316,65.1140915 132.840254,70.148625 132.322059,71.6255286 C132.823313,71.1071053 133.98925,70.2983247 135.899592,70.2983247 C137.102401,70.2983247 138.600181,70.6188229 140.413861,71.535106 C145.964518,74.3271572 142.257436,77.5120447 141.290805,78.2464777 C142.444783,77.4849179 147.962555,73.9413538 151.304907,73.9413538 C151.97557,73.9413538 152.557542,74.083016 153,74.4185845 C150.418994,77.1704479 145.765212,79 140.463687,79" id="Fill-249" fill="#F2F7FD"></path>
        <path d="M102,38.7368421 C102,38.7368421 109.093333,35.6491228 114.92,37.7076023 C120.746667,39.7660819 121,48 121,48 C121,48 116.946667,35.7777778 102,38.7368421" id="Fill-250" fill="#D2E5F9"></path>
        <path d="M130.770611,58 C130.770611,58 133.379603,43.7582804 121,47.684712 C121,47.684712 129.164418,45.6410115 130.770611,58" id="Fill-251" fill="#D2E5F9"></path>
        <path d="M93,15 C93,15 103.595515,19.0209424 103.960877,27.1884817 C104.32624,35.3560209 102.012277,39 102.012277,39 C102.012277,39 107.370928,22.0366492 93,15" id="Fill-252" fill="#D2E5F9"></path>
        <path d="M67.5,41 C65.015027,41 63,38.984973 63,36.5 C63,34.0140541 65.015027,32 67.5,32 C67.7364324,32 67.968973,32.0175135 68.1956757,32.0535135 C68.5508108,32.2734054 68.9652973,32.4067027 69.408973,32.4232432 C70.9394595,33.1412973 72,34.6970811 72,36.5 C72,38.984973 69.984973,41 67.5,41" id="Fill-253" fill="#F2F7FD"></path>
        <path d="M69.4995122,32 C69.4673171,32 69.4341463,32 69.4019512,31.9980488 C69.022439,31.8204878 68.6136585,31.6936585 68.1853659,31.6273171 C67.4741463,31.1863415 67,30.3980488 67,29.5004878 C67,28.12 68.1190244,27 69.4995122,27 C70.88,27 72,28.12 72,29.5004878 C72,30.8809756 70.88,32 69.4995122,32" id="Fill-254" fill="#F2F7FD"></path>
        <path d="M69,31.69 C68.6343224,31.673 68.2927025,31.536 68,31.31 C68.3520449,31.378 68.6880513,31.508 69,31.69" id="Fill-255" fill="#E9F2FC"></path>
        <path d="M221.349475,85 C228.169603,85 233.698949,80.8087203 233.698949,75.6395756 C233.698949,74.9876656 233.609895,74.3528056 233.442794,73.7380043 C240.190879,72.8774832 245.372015,67.9179526 245.372015,61.9113543 C245.372015,60.9756128 245.233931,60.0699594 244.996788,59.195397 C247.183111,57.7892774 248.864128,55.8054651 249.761672,53.4916862 C251.622798,54.1807049 253.690049,54.5778685 255.878374,54.5778685 C261.137557,54.5778685 265.729336,52.3453275 268.273876,49.0165749 C269.306501,49.2161596 270.381152,49.3335034 271.491824,49.3335034 C278.95334,49.3335034 285,44.5575106 285,38.6662502 C285,32.7749899 278.95334,28 271.491824,28 C267.117176,28 263.238829,29.6498337 260.770335,32.1962944 C259.239408,31.7600162 257.598415,31.5102845 255.878374,31.5102845 C249.75967,31.5102845 244.536509,34.5241145 242.404218,38.7855999 C240.822261,38.1908574 239.085209,37.8618936 237.261105,37.8618936 C229.951681,37.8618936 224.026095,43.1383527 224.026095,49.6474232 C224.026095,50.3213978 224.104142,50.9793254 224.226216,51.6222089 C220.117729,53.7093238 217.355057,57.5305192 217.355057,61.9113543 C217.355057,63.5561733 217.744293,65.1227632 218.446718,66.5489416 C213.029439,67.5408477 209,71.2286524 209,75.6395756 C209,80.8087203 214.528346,85 221.349475,85" id="Fill-173" fill="#D2E5F9"></path>
        <path d="M382,98.08 C382,99.969 372.039753,101.49 359.757116,101.49 C355.642884,101.49 351.788919,101.32 348.47551,101.019 C348.625664,101.469 348.705747,101.94 348.705747,102.429 C348.705747,106.059 344.331246,109 338.935695,109 C333.540144,109 329.155633,106.059 329.155633,102.429 C329.155633,101.97 329.225705,101.53 329.355839,101.099 C327.844284,101.349 326.212606,101.49 324.500844,101.49 C322.358641,101.49 320.32655,101.269 318.514686,100.889 C317.463605,102.849 314.690752,104.25 311.417384,104.25 C307.2531,104.25 303.879629,101.97 303.879629,99.16 C303.879629,98.929 303.90966,98.71 303.949701,98.49 C302.478187,98.65 300.966632,98.73 299.415036,98.73 C295.050546,98.73 290.946323,98.08 287.382657,96.94 C285.770999,97.98 283.869042,98.58 281.816931,98.58 C277.282266,98.58 273.438311,95.66 272.0669,91.599 C268.813553,93.17 265.03967,94.07 261.00552,94.07 C256.550937,94.07 252.406674,92.969 248.9331,91.08 C246.350443,95.349 234.077817,98.58 219.332647,98.58 C214.057219,98.58 209.092111,98.17 204.777673,97.44 C199.231967,98.009 192.424964,98.4 184.957281,98.53 C185.227559,98.95 185.377714,99.389 185.377714,99.849 C185.377714,102.28 181.163378,104.25 175.958023,104.25 C170.752667,104.25 166.528321,102.28 166.528321,99.849 C166.528321,99.32 166.738538,98.82 167.098908,98.36 C150.812152,97.719 139,95.83 139,93.599 C139,91.2 152.804202,89.19 171.143069,88.719 C168.290134,87.82 166.528321,86.58 166.528321,85.219 C166.528321,82.45 173.725726,80.21 182.604861,80.21 C184.106406,80.21 185.547889,80.28 186.9193,80.4 C187.58999,78.44 189.852317,77 192.555098,77 C193.155716,77 193.736313,77.07 194.28688,77.21 C195.187806,76.219 196.359011,75.62 197.64033,75.62 C200.152915,75.62 202.225046,77.88 202.645479,80.86 C204.817714,79.16 208.971988,78.009 213.75691,78 C212.195304,76.679 211.324408,75.19 211.324408,73.62 C211.324408,69.63 217.000247,66.179 225.238723,64.53 C224.79827,62.95 224.558023,61.3 224.558023,59.599 C224.558023,48.22 235.068836,39 248.032173,39 C251.505747,39 254.809145,39.67 257.772194,40.86 C259.694171,33.429 265.69034,28 272.807662,28 C281.466571,28 288.48379,36.04 288.48379,45.96 C288.48379,52.2 285.700927,57.7 281.476581,60.92 C287.632915,62.13 292.117528,65.889 292.117528,70.349 C292.117528,70.57 292.087497,70.78 292.067477,70.99 C294.389866,70.58 296.8524,70.349 299.415036,70.349 C299.54517,70.349 299.675304,70.36 299.815448,70.36 C300.946612,67.259 304.350113,65 308.384264,65 C313.339361,65 317.353491,68.4 317.353491,72.599 C317.353491,73.29 317.233368,73.94 317.033162,74.57 C321.457714,77.13 324.190525,80.66 324.190525,84.54 C324.190525,86.269 323.649969,87.929 322.65895,89.46 C323.269578,89.42 323.880206,89.4 324.500844,89.4 C325.381751,89.4 326.232626,89.44 327.063481,89.5 C327.36379,87.16 329.766262,85.33 332.679258,85.33 C335.802472,85.33 338.335077,87.429 338.335077,90.009 C338.335077,90.179 338.315057,90.36 338.295036,90.54 C341.918764,91.13 344.46138,92.53 344.46138,94.15 C344.46138,94.72 344.14105,95.259 343.590484,95.75 C347.644655,95.089 353.380556,94.679 359.757116,94.679 C372.039753,94.679 382,96.2 382,98.08" id="Fill-177" fill="#FFFFFF"></path>
        <path d="M338.935695,109 C333.540144,109 329.155633,106.037879 329.155633,102.381809 C329.155633,101.919513 329.225705,101.476353 329.355839,101.042258 C327.844284,101.294053 326.212606,101.436066 324.500844,101.436066 C322.358641,101.436066 320.32655,101.213479 318.514686,100.83075 C317.463605,102.804826 314.690752,104.215887 311.417384,104.215887 C307.2531,104.215887 303.879629,101.919513 303.879629,99.0893326 C303.879629,98.8566737 303.90966,98.6361009 303.949701,98.4145209 C302.478187,98.57567 300.966632,98.6562445 299.415036,98.6562445 C297.676247,98.6562445 295.978501,98.5525048 294.339815,98.3550972 C291.86627,98.0559643 289.525862,97.544316 287.382657,96.8533894 C285.770999,97.9008583 283.869042,98.5051673 281.816931,98.5051673 C277.282266,98.5051673 273.438311,95.5641969 272.0669,91.4740322 C268.813553,93.0563146 265.03967,93.9627781 261.00552,93.9627781 C256.868264,93.9627781 252.999283,93.0069627 249.685874,91.3461202 C249.431613,91.2182081 249.180354,91.0872745 248.9331,90.951305 C246.350443,95.2509634 234.077817,98.5051673 219.332647,98.5051673 C214.057219,98.5051673 209.092111,98.0922228 204.777673,97.3569802 C199.231967,97.9300666 192.424964,98.3238746 184.957281,98.4548082 C185.227559,98.8778245 185.377714,99.3199772 185.377714,99.7832808 C185.377714,102.231739 181.163378,104.215887 175.958023,104.215887 C170.752667,104.215887 166.528321,102.231739 166.528321,99.7832808 C166.528321,99.2504817 166.738538,98.7468909 167.098908,98.2835873 C150.812152,97.6379839 139,95.7354178 139,93.4883955 C139,93.4883955 141.543617,93.0210632 145.645837,93.0210632 C148.745026,93.0210632 152.73413,93.2879664 157.188713,94.2246453 C166.878682,96.269224 169.251123,97.2864775 169.51139,97.4073393 C169.261133,97.1051848 166.46826,93.6596164 172.534501,92.3815029 C173.638636,92.1468296 174.772803,92.0501401 175.892956,92.0501401 C181.043254,92.0501401 185.904255,94.089683 186.208568,94.2145735 C185.93829,93.9829217 181.974212,90.457786 189.722183,88.1815554 C191.086587,87.7806971 192.292828,87.6145122 193.351918,87.6145122 C198.35006,87.6145122 200.123885,91.3028114 200.222987,91.5354703 C200.152915,91.1930286 198.761483,84.6251971 206.239176,83.649238 C206.700651,83.5888071 207.132095,83.5606061 207.53551,83.5606061 C212.1913,83.5606061 213.17331,87.325451 213.376519,89.2995271 C213.313454,85.1167017 213.631782,71.350543 220.270612,71.350543 C221.01738,71.350543 221.842229,71.5247854 222.756169,71.9055001 C224.988465,72.8311 226.560082,73.8483535 227.661215,74.8666141 C227.210752,70.6153004 227.561112,66.0537747 230.924573,65.3588194 C231.648317,65.2087493 232.330019,65.1422754 232.966674,65.1422754 C237.899749,65.1422754 240.262179,69.1276931 240.404325,69.3774742 C240.244161,68.9443861 236.109907,57.6931599 245.279341,51.9230163 C248.793957,49.7132598 251.82007,49.0233403 254.227547,49.0233403 C258.21565,49.0233403 260.505005,50.9158346 260.505005,50.9158346 C260.505005,50.9158346 259.815296,40 269.210962,40 C269.350105,40 269.49125,40.0030215 269.634398,40.0080575 C279.474521,40.3404274 278.473491,56.1229637 274.309207,60.9876511 C270.785582,65.0969522 270.235015,65.7415484 270.154933,65.8523384 C270.342126,65.7052899 271.907736,64.5641531 274.160054,64.5641531 C276.249203,64.5641531 278.929961,65.5461552 281.646756,69.2163251 C285.320536,74.1716588 281.266365,79.5399369 277.76276,82.8434927 C277.989994,82.828385 278.230241,82.8203276 278.483502,82.8203276 C280.083147,82.8203276 282.221347,83.1396041 285.090299,83.9916798 C296.992544,87.5168156 297.332894,92.210282 297.332894,92.210282 C297.332894,92.210282 297.454019,89.359958 303.854604,89.359958 C304.81359,89.359958 305.91172,89.4244176 307.173018,89.5714661 C316.852976,90.6995095 322.68898,98.2533719 322.68898,98.2533719 C322.68898,98.2533719 320.762999,99.1487563 322.195473,99.1487563 C322.911209,99.1487563 324.466809,98.925162 327.523955,98.2533719 C329.174653,97.8907865 330.70723,97.7427308 332.109673,97.7427308 C338.506253,97.7427308 342.209063,100.83075 342.209063,100.83075 C342.209063,100.83075 341.884729,98.0186985 346.812799,98.0186985 C347.825841,98.0186985 349.061112,98.137546 350.567662,98.4245927 C354.812029,99.2333596 357.864169,99.4972412 360.554937,99.4972412 C363.461928,99.4972412 365.948486,99.1890436 369.066694,98.9281836 C369.852503,98.8617096 370.615287,98.83653 371.353046,98.83653 C372.665396,98.83653 373.897664,98.9171046 375.035835,98.9986863 C376.174006,99.080268 377.220082,99.1618497 378.158047,99.1618497 C379.785722,99.1618497 381.090064,98.9160974 382,98.0015765 C382,99.9041426 372.039753,101.436066 359.757116,101.436066 C355.642884,101.436066 351.788919,101.264845 348.47551,100.961683 C348.625664,101.414915 348.705747,101.889298 348.705747,102.381809 C348.705747,106.037879 344.331246,109 338.935695,109" id="Fill-178" fill="#F2F7FD"></path>
    </g>
</svg>